/* XPM */
static char * dvd_xpm[] = {
"23 15 8 1",
" 	c #FCFCFC",
".	c #AEAEAE",
"+	c #E0E0E0",
"@	c #F0F0F0",
"#	c #D5D5D5",
"$	c #BABABA",
"%	c #C6C6C6",
"&	c #FFFFFF",
"&&&&&&&&&&&&&&&&&&&&&&&",
"&&&&&&&&&&&&&&&&&&&&&&&",
"&&&&&&&&&&&&&&&&&&&&&&&",
"&&&@#+++++ &&+++++@&&&&",
"&&&+$%$...#&@.$%%$.+&&&",
"&&&#% @$$$% $%##&@$$&&&",
"&& $%& .%#$%$@$%& $$&&&",
"&&@.%#$$@@..+@.%#$$@&&&",
"&&+%%%# & $#&@%%%#@&&&&",
"&&&&&&& @@#@@  &&&&&&&&",
"&&@##%%%%%%%%%%%##@&&&&",
"&&%....$#&&&#$....# &&&",
"&& @++##%%%%%##++@ &&&&",
"&&&&&&&&&&&&&&&&&&&&&&&",
"&&&&&&&&&&&&&&&&&&&&&&&"};
