/* XPM */
static char * found_xpm[] = {
"12 12 76 1",
" 	c None",
".	c #B2AC00",
"+	c #6A5700",
"@	c #8B8700",
"#	c #FFFE00",
"$	c #DDC000",
"%	c #2F2200",
"&	c #DDDD00",
"*	c #FFFF00",
"=	c #F3D800",
"-	c #6D5B00",
";	c #A09E00",
">	c #B5B400",
",	c #F8DF00",
"'	c #C1A600",
")	c #988B00",
"!	c #9A8500",
"~	c #624E00",
"{	c #DCDC00",
"]	c #FCE400",
"^	c #F7EF00",
"/	c #FFF400",
"(	c #FEE300",
"_	c #F5D100",
":	c #736000",
"<	c #AC9800",
"[	c #FEF000",
"}	c #FEF800",
"|	c #FEEF00",
"1	c #F7D600",
"2	c #E3BF00",
"3	c #BD9F00",
"4	c #372D00",
"5	c #A58B00",
"6	c #F4D300",
"7	c #FDEA00",
"8	c #FFFA00",
"9	c #FFFB00",
"0	c #FEE800",
"a	c #E9C500",
"b	c #CDAD00",
"c	c #A48A00",
"d	c #392E00",
"e	c #B7AA00",
"f	c #FBF500",
"g	c #FBDD00",
"h	c #FDDA00",
"i	c #EBC600",
"j	c #C3A400",
"k	c #3C3200",
"l	c #DCD900",
"m	c #F7D900",
"n	c #DCB900",
"o	c #F0CB00",
"p	c #EAC500",
"q	c #D3B200",
"r	c #5A4C00",
"s	c #FCF200",
"t	c #F8D900",
"u	c #D2B100",
"v	c #AD9200",
"w	c #D9B700",
"x	c #E2BF00",
"y	c #D8B600",
"z	c #796600",
"A	c #F6D600",
"B	c #746200",
"C	c #211B00",
"D	c #5D4D00",
"E	c #B99C00",
"F	c #D1B100",
"G	c #7D6A00",
"H	c #594B00",
"I	c #2D2500",
"J	c #534400",
"K	c #312600",
"     .+     ",
"    @#$%    ",
"    &*=-    ",
"  ;>**,')!~ ",
"{*****]^/(_:",
"<[#**#}|1234",
" 567890abcd ",
"  ef8ghijk  ",
"  l8mnopqr  ",
"  stuvwxyz  ",
"  AbBCDEFG  ",
"  HI    JK  "};
